<svg xmlns="http://www.w3.org/2000/svg" data-name="Layer 1" width="863.917" height="364.205"><path fill="#f0f0f0" d="M311.959 119.745H0v102.411h11.817v26.785l26.784-26.785h273.358V119.745z"/><path fill="#fff" d="M8.666 129.718h294.628v81.929H8.666z"/><path fill="#f0f0f0" d="M34.721 154.426h141.856v4.305H34.721zM34.721 169.318h247.243v4.305H34.721zM34.721 184.21h247.001v4.305H34.721zM524.031 351.07s1.487-31.16 31.972-27.538"/><circle cx="515.418" cy="306.161" r="15.257" fill="#f0f0f0"/><path fill="#f0f0f0" d="M512.935 331.853h4.307V362h-4.307z"/><circle cx="666.93" cy="180.073" r="123.297" fill="#3f3d56"/><path d="M589.307 189.97a32.627 32.627 0 0 1 50.08 0 36.264 36.264 0 1 0-51.27-1.189q.58.609 1.19 1.19ZM687.219 189.97a32.627 32.627 0 0 1 50.08 0 36.264 36.264 0 1 0-51.27-1.189q.58.609 1.19 1.19Z" fill="#fff"/><circle cx="601.976" cy="151.392" r="12.474" fill="#3f3d56"/><circle cx="699.885" cy="151.392" r="12.474" fill="#3f3d56"/><circle cx="578.083" cy="210.898" r="14.505" fill="#2f2e41"/><circle cx="744.896" cy="210.898" r="14.505" fill="#2f2e41"/><path fill="#2f2e41" d="m661.49 181.886-10.879 47.143 18.131-18.131-7.252-29.012z"/><path fill="#3f3d56" d="m717.39 363.205-12.352-10.366.288 10.366h-3.836l-.307-10.961-16.676 10.961h-6.981l23.533-15.468-.912-32.479-.681-24.53 3.827-.105.691 24.635.91 32.45 18.46 15.497h-5.964zM659.363 363.205l-12.351-10.366.288 10.366h-3.826l-.307-10.961-16.677 10.961h-6.981l23.524-15.468-.911-32.479-.681-24.53 3.835-.105.691 24.635.901 32.45 18.46 15.497h-5.965zM668.743 47.71c-3.383 0-6.368 2.629-8.363 6.665-1.759-6.07-5.454-10.29-9.77-10.29a6.563 6.563 0 0 0-.87.146c-1.659-6.48-5.514-11.026-10.008-11.026-6.009 0-10.88 8.118-10.88 18.132s4.871 18.132 10.88 18.132a6.561 6.561 0 0 0 .87-.146c1.66 6.48 5.514 11.025 10.009 11.025 3.383 0 6.367-2.628 8.363-6.664 1.759 6.07 5.453 10.29 9.769 10.29 6.008 0 10.879-8.117 10.879-18.131s-4.87-18.132-10.88-18.132ZM550.682 183.91l-67.92-11.017c-3.423-.555-6.908-1.111-10.342-.628s-6.87 2.174-8.621 5.167a8.651 8.651 0 0 0 9.15 12.853c-3.708-.12-7.604-.2-10.894 1.514s-5.62 5.875-4.016 9.22a8.277 8.277 0 0 0 1.92 2.429 17.606 17.606 0 0 0 18.522 3.14c-2.5 3.587-7.462 4.12-11.754 4.95s-9.253 3.258-9.413 7.626c-.179 4.909 5.663 7.518 10.472 8.517a137.417 137.417 0 0 0 76.82-6.261 30.98 30.98 0 0 0 7.738-3.95 17.433 17.433 0 0 0-7.054-30.964M843.849 239.582a137.419 137.419 0 0 0-51.173-57.637 30.975 30.975 0 0 0-7.807-3.81 17.433 17.433 0 0 0-20.509 24.247l-5.315-2.75 32.014 60.907c1.613 3.07 3.263 6.19 5.713 8.643s5.866 4.185 9.31 3.786a8.6 8.6 0 0 0 6.78-12.3 16.643 16.643 0 0 0 5.751 5.06c3.347 1.6 8.074.96 9.783-2.332a8.275 8.275 0 0 0 .788-2.994 17.606 17.606 0 0 0-8.621-16.692c4.368-.157 7.776 3.489 11.019 6.42 3.243 2.931 8.165 5.438 11.753 2.94 4.03-2.807 2.605-9.044.514-13.488Z"/><path fill="#cacaca" d="M55.757 0H506v147.807h-17.055v38.656l-38.656-38.656H55.757V0z"/><path fill="#fff" d="M68.264 14.393h425.229v118.246H68.264z"/><path fill="#2f2e41" d="M102.459 48.916h204.737v6.213H102.459zM102.459 70.41h356.84v6.213h-356.84zM102.459 91.903h356.49v6.213h-356.49z"/><path d="M862.917 364.205h-381a1 1 0 0 1 0-2h381a1 1 0 0 1 0 2Z" fill="#cacaca"/></svg>